<?xml version="1.0" encoding="utf-8"?>
<!-- Generator: Adobe Illustrator 16.0.3, SVG Export Plug-In . SVG Version: 6.00 Build 0)  -->
<!DOCTYPE svg PUBLIC "-//W3C//DTD SVG 1.1//EN" "http://www.w3.org/Graphics/SVG/1.1/DTD/svg11.dtd">
<svg version="1.1" id="Warstwa_1" xmlns:sketch="http://www.bohemiancoding.com/sketch/ns"
	 xmlns="http://www.w3.org/2000/svg" xmlns:xlink="http://www.w3.org/1999/xlink" x="0px" y="0px" width="60px" height="540.25px"
	 viewBox="0 -360 60 540.25" enable-background="new 0 -360 60 540.25" xml:space="preserve">
<title></title>
<desc></desc>
<g id="black">
	<g id="slice" transform="translate(-100.000000, 0.000000)">
	</g>
	<g id="facebook" transform="translate(21.000000, 12.000000)">
		<path d="M4.462,35.314V17.999H0.943v-5.74h3.519V8.788c0-4.682,1.399-8.058,6.526-8.058h6.098v5.728h-4.293
			c-2.15,0-2.641,1.429-2.641,2.925v2.875h6.617l-0.903,5.74h-5.714v17.315H4.462z"/>
	</g>
</g>
<g id="black_1_">
	<g id="slice_1_" transform="translate(-600.000000, 0.000000)">
	</g>
	<g id="linkedin" transform="translate(16.000000, 17.000000)">
		<path d="M5.948-35.177v-18.299H0.293v18.299H5.948z M5.948-59.962C5.915-61.6,4.823-62.846,3.05-62.846S0.118-61.6,0.118-59.962
			c0,1.602,1.125,2.885,2.865,2.885h0.033C4.823-57.077,5.948-58.36,5.948-59.962z M15.175-35.177v-10.426
			c0-0.558,0.041-1.116,0.205-1.514c0.449-1.115,1.469-2.27,3.184-2.27c2.246,0,3.654,1.275,3.654,3.784v10.426h5.693v-10.705
			c0-5.734-3.061-8.402-7.145-8.402c-3.348,0-4.816,1.872-5.633,3.146l0.041-2.447H9.491c0.082,1.752,0,18.409,0,18.409H15.175z"/>
	</g>
</g>
<g id="black_2_">
	<g id="slice_2_">
	</g>
	<g id="twitter" transform="translate(13.000000, 16.000000)">
		<path d="M28.067-118.563c-1.209-1.374-2.932-2.25-4.839-2.282c-3.66-0.061-6.628,3.032-6.628,6.908
			c0,0.55,0.059,1.086,0.172,1.602c-5.51-0.357-10.394-3.226-13.662-7.55c-0.57,1.036-0.898,2.247-0.898,3.544
			c0,2.456,1.171,4.635,2.949,5.922c-1.086-0.048-2.108-0.377-3.002-0.917c0,0.029,0,0.059,0,0.089c0,3.43,2.284,6.307,5.316,6.977
			c-0.557,0.158-1.143,0.24-1.746,0.236c-0.428-0.002-0.843-0.05-1.248-0.135c0.844,2.813,3.292,4.865,6.192,4.933
			c-2.269,1.883-5.126,3.005-8.231,2.998C1.907-96.238,1.38-96.273,0.86-96.34c2.934,2.014,6.418,3.186,10.161,3.186
			c12.192,0.004,18.858-10.606,18.858-19.809c0-0.302-0.006-0.602-0.019-0.901c1.295-0.965,2.419-2.175,3.308-3.557
			c-1.189,0.536-2.467,0.892-3.807,1.041c1.367-0.842,2.419-2.19,2.914-3.807C30.995-119.41,29.577-118.853,28.067-118.563z"/>
	</g>
</g>
<g id="black_3_">
	<g id="slice_3_" transform="translate(-500.000000, 0.000000)">
	</g>
	<g id="pinterest" transform="translate(16.000000, 12.000000)">
		<path id="Pinterest" d="M16.774-152.916c6.605,0,11.086-6.146,11.086-14.376c0-6.22-5.162-12.016-13.007-12.016
			c-9.763,0-14.685,7.145-14.685,13.104c0,3.607,1.336,6.817,4.207,8.014c0.471,0.196,0.893,0.007,1.029-0.524
			c0.094-0.369,0.32-1.298,0.418-1.684c0.139-0.527,0.085-0.711-0.295-1.17c-0.826-0.998-1.354-2.286-1.354-4.114
			c0-5.3,3.883-10.045,10.116-10.045c5.516,0,8.549,3.441,8.549,8.039c0,6.048-2.621,11.152-6.515,11.152
			c-2.15,0-3.759-1.814-3.243-4.04c0.616-2.657,1.814-5.526,1.814-7.444c0-1.716-0.902-3.149-2.771-3.149
			c-2.198,0-3.963,2.322-3.963,5.43c0,1.98,0.656,3.319,0.656,3.319s-2.249,9.727-2.645,11.429
			c-0.357,1.551-0.411,3.256-0.361,4.695c0.15,1.293,1.402,2.346,2.488,0.928c0.764-1.246,1.584-2.818,2.009-4.396
			c0.253-0.933,1.446-5.766,1.446-5.766C12.47-154.14,14.556-152.916,16.774-152.916z"/>
	</g>
</g>
<g id="black_4_">
	<g id="slice_4_" transform="translate(-700.000000, -600.000000)">
	</g>
	<g id="behance" transform="translate(12.000000, 18.000000)">
		<path d="M23.44-238.467v2.308h9.23v-2.308H23.44z M0.132-239.668l10.652,0.118c0,0,5.85-0.309,6.656,4.336
			c0.806,4.644-2.943,5.742-2.943,5.742s4.63,1.051,3.985,6.476c-0.645,5.426-6.966,5.481-6.966,5.481H0.132V-239.668z
			 M4.978-230.852l4.408,0.027c0.283,0,1.024-0.024,1.635-0.168c0.261-0.062,0.77-0.237,1.119-0.553
			c0.146-0.132,0.414-0.502,0.57-0.94c0.15-0.426,0.189-0.92,0.189-1.11c0-0.347-0.064-0.668-0.189-0.964
			c-0.127-0.295-0.316-0.551-0.57-0.767c-0.252-0.216-0.574-0.384-0.965-0.506c-0.39-0.122-0.854-0.183-1.393-0.183l-4.805-0.027
			V-230.852z M4.978-221.537l4.816,0.031c0.309,0,1.119-0.027,1.785-0.188c0.285-0.067,0.841-0.262,1.225-0.611
			c0.158-0.145,0.451-0.555,0.621-1.039c0.164-0.471,0.207-1.018,0.207-1.227c0-0.384-0.068-0.738-0.207-1.065
			s-0.346-0.608-0.621-0.848c-0.277-0.238-0.629-0.425-1.055-0.56s-0.934-0.202-1.522-0.202l-5.249-0.03V-221.537z M24.458-224.487
			c0.006,0.129,0,3.311,2.606,4.041c3.026,0.849,4.375-1.665,4.479-1.956h3.965c-0.104,0.477-1.715,6.977-10.482,4.858
			c-5.381-1.3-5.104-7.673-5.104-8.218c0-0.503,0.021-3.176,2.189-5.642c2.169-2.465,5.256-2.465,5.881-2.465
			c0.626,0,3.842,0,5.801,2.176c2.536,2.815,2.033,7.325,2.033,7.325L24.458-224.487z M31.401-227.275
			c-0.031-0.499-0.131-0.958-0.3-1.379c-0.169-0.421-0.401-0.785-0.699-1.093c-0.297-0.308-0.653-0.55-1.067-0.726
			c-0.416-0.176-0.879-0.264-1.391-0.264c-0.462,0-0.89,0.093-1.283,0.279c-0.395,0.186-0.74,0.438-1.038,0.755
			c-0.297,0.318-0.535,0.685-0.714,1.1c-0.18,0.416-0.285,0.858-0.315,1.328H31.401z"/>
	</g>
</g>
<g id="black_5_">
	<g id="slice_5_" transform="translate(-900.000000, -500.000000)">
	</g>
	<g id="github" transform="translate(11.000000, 11.000000)">
		<path d="M14.426-263.483c0-0.449-0.016-1.64-0.025-3.22c-5.135,1.144-6.219-2.538-6.219-2.538
			c-0.84-2.187-2.051-2.769-2.051-2.769c-1.676-1.176,0.127-1.15,0.127-1.15c1.854,0.133,2.828,1.951,2.828,1.951
			c1.646,2.892,4.32,2.058,5.373,1.572c0.168-1.223,0.645-2.058,1.172-2.53c-4.1-0.478-8.409-2.103-8.409-9.356
			c0-2.066,0.72-3.756,1.901-5.079c-0.189-0.479-0.824-2.403,0.181-5.01c0,0,1.55-0.509,5.076,1.94
			c1.472-0.419,3.052-0.631,4.623-0.638c1.567,0.007,3.146,0.218,4.622,0.638c3.523-2.45,5.071-1.94,5.071-1.94
			c1.007,2.605,0.374,4.53,0.184,5.01c1.183,1.323,1.897,3.013,1.897,5.079c0,7.272-4.316,8.873-8.43,9.341
			c0.664,0.584,1.253,1.739,1.253,3.506c0,2.53-0.023,4.572-0.023,5.192c0,0.507,0.333,1.095,1.271,0.91
			c7.329-2.508,12.613-9.599,12.613-17.958c0-10.455-8.266-18.93-18.461-18.93s-18.461,8.475-18.461,18.93
			c0,8.362,5.29,15.458,12.626,17.961C14.088-262.397,14.426-262.982,14.426-263.483z"/>
	</g>
</g>
<g id="black_6_">
	<g id="slice_6_" transform="translate(-700.000000, -500.000000)">
	</g>
	<g id="mail" transform="translate(11.000000, 18.000000)">
		<path d="M19.015-344.039l17.308-15H1.707L19.015-344.039z M14.34-345.699l4.675,3.838l4.602-3.838l12.706,10.892H1.707
			L14.34-345.699z M0.554-335.961v-21.924l12.691,10.962L0.554-335.961z M37.476-335.961v-21.924l-12.691,10.962L37.476-335.961z"/>
	</g>
</g>
<g>
	<line fill="none" stroke="#000000" stroke-miterlimit="10" x1="10.15" y1="91.406" x2="29.999" y2="84.406"/>
	<line fill="none" stroke="#000000" stroke-miterlimit="10" x1="49.599" y1="91.406" x2="29.75" y2="84.406"/>
</g>
<g>
	<line fill="none" stroke="#000000" stroke-miterlimit="10" x1="9.901" y1="147.95" x2="29.749" y2="154.95"/>
	<line fill="none" stroke="#000000" stroke-miterlimit="10" x1="49.35" y1="147.95" x2="29.501" y2="154.95"/>
</g>
</svg>
